<svg width="48" height="46" viewBox="0 0 48 46" fill="none" xmlns="http://www.w3.org/2000/svg">
<path fill-rule="evenodd" clip-rule="evenodd" d="M30.8508 5.35192C23.0491 1.87422 13.8878 3.94226 8.3333 10.4438C2.77632 16.9482 2.1566 26.3385 6.81304 33.5186C11.4676 40.6958 20.2797 43.9485 28.469 41.5262C36.6603 39.1032 42.294 31.5739 42.2989 23.0107V21.044C42.2989 20.0278 43.1274 19.204 44.1494 19.204C45.1715 19.204 46 20.0278 46 21.044V23.0118L46 23.0128C45.9942 33.1905 39.297 42.1627 29.5243 45.0534C19.7496 47.9447 9.2438 44.0574 3.70248 35.5129C-1.83692 26.9712 -1.10162 15.8032 5.51249 8.06137C12.1291 0.316655 23.0555 -2.15582 32.3649 1.99398C33.2975 2.40971 33.7146 3.49842 33.2965 4.42569C32.8784 5.35295 31.7834 5.76765 30.8508 5.35192Z" fill="#5C7D2B"/>
<path fill-rule="evenodd" clip-rule="evenodd" d="M47.4426 2.55567C48.1826 3.2998 48.1862 4.51001 47.4509 5.25874L23.7048 29.436C23.3503 29.797 22.8681 30 22.3651 30C21.8621 30 21.3799 29.797 21.0253 29.436L14.5491 22.8422C13.8138 22.0935 13.8174 20.8833 14.5574 20.1391C15.2973 19.395 16.4933 19.3987 17.2286 20.1475L22.3651 25.3772L44.7714 2.564C45.5067 1.81527 46.7027 1.81154 47.4426 2.55567Z" fill="#5C7D2B"/>
</svg>
