<svg width="46" height="46" viewBox="0 0 46 46" fill="none" xmlns="http://www.w3.org/2000/svg">
<path fill-rule="evenodd" clip-rule="evenodd" d="M0 23C0 10.2975 10.2975 0 23 0C35.7025 0 46 10.2975 46 23C46 35.7025 35.7025 46 23 46C10.2975 46 0 35.7025 0 23ZM23 3.29958C12.1198 3.29958 3.29958 12.1198 3.29958 23C3.29958 33.8802 12.1198 42.7004 23 42.7004C33.8802 42.7004 42.7004 33.8802 42.7004 23C42.7004 12.1198 33.8802 3.29958 23 3.29958Z" fill="#5C7D2B"/>
<path fill-rule="evenodd" clip-rule="evenodd" d="M23 11.3544C24.072 11.3544 24.9409 12.2287 24.9409 13.3072V23.9586C24.9409 25.0371 24.072 25.9114 23 25.9114C21.9281 25.9114 21.0591 25.0371 21.0591 23.9586V13.3072C21.0591 12.2287 21.9281 11.3544 23 11.3544Z" fill="#5C7D2B"/>
<ellipse cx="23" cy="31.7342" rx="1.94093" ry="1.94093" fill="#5C7D2B"/>
</svg>
